<svg xmlns="http://www.w3.org/2000/svg" viewBox="0 0 1024 1024">
  <rect width="1024" height="1024" fill="#000000"/>

  <!-- Blood drop — upper left quadrant, large (~280px tall) -->
  <g transform="translate(230, 260)">
    <path
      d="M0,-140 C-15,-100 -95,25 -95,90 C-95,143 -53,185 0,185 C53,185 95,143 95,90 C95,25 15,-100 0,-140 Z"
      fill="#ff5555"
      stroke="#ffb000"
      stroke-width="5"
    />
    <ellipse cx="-22" cy="50" rx="18" ry="26" fill="#ff8888" opacity="0.3"/>
  </g>

  <!-- Insulin pen — larger, diagonal from lower-left to upper-right -->
  <g transform="translate(530, 500) rotate(-45)">
    <!-- Main barrel -->
    <rect x="-220" y="-28" width="440" height="56" fill="none" stroke="#ffb000" stroke-width="5" rx="3"/>
    <!-- Graduation marks -->
    <line x1="-180" y1="-28" x2="-180" y2="-12" stroke="#ffb000" stroke-width="2.5"/>
    <line x1="-140" y1="-28" x2="-140" y2="-16" stroke="#ffb000" stroke-width="2"/>
    <line x1="-100" y1="-28" x2="-100" y2="-12" stroke="#ffb000" stroke-width="2.5"/>
    <line x1="-60" y1="-28" x2="-60" y2="-16" stroke="#ffb000" stroke-width="2"/>
    <line x1="-20" y1="-28" x2="-20" y2="-12" stroke="#ffb000" stroke-width="2.5"/>
    <line x1="20" y1="-28" x2="20" y2="-16" stroke="#ffb000" stroke-width="2"/>
    <line x1="60" y1="-28" x2="60" y2="-12" stroke="#ffb000" stroke-width="2.5"/>
    <line x1="100" y1="-28" x2="100" y2="-16" stroke="#ffb000" stroke-width="2"/>
    <line x1="140" y1="-28" x2="140" y2="-12" stroke="#ffb000" stroke-width="2.5"/>
    <!-- Dosage window -->
    <rect x="50" y="-20" width="75" height="40" fill="none" stroke="#ffb000" stroke-width="3" rx="2"/>
    <line x1="68" y1="-14" x2="68" y2="14" stroke="#ffb000" stroke-width="2"/>
    <line x1="86" y1="-14" x2="86" y2="14" stroke="#ffb000" stroke-width="2"/>
    <line x1="104" y1="-14" x2="104" y2="14" stroke="#ffb000" stroke-width="2"/>
    <!-- Cap end (right) -->
    <rect x="220" y="-22" width="50" height="44" fill="none" stroke="#ffb000" stroke-width="5" rx="3"/>
    <line x1="232" y1="-14" x2="232" y2="14" stroke="#ffb000" stroke-width="2.5"/>
    <line x1="245" y1="-14" x2="245" y2="14" stroke="#ffb000" stroke-width="2.5"/>
    <line x1="258" y1="-14" x2="258" y2="14" stroke="#ffb000" stroke-width="2.5"/>
    <!-- Needle end (left) — tapered -->
    <polygon points="-220,-20 -220,20 -280,5 -280,-5" fill="none" stroke="#ffb000" stroke-width="4"/>
    <!-- Needle tip -->
    <line x1="-280" y1="0" x2="-316" y2="0" stroke="#ffb000" stroke-width="3"/>
  </g>

  <!-- Chart line — starts near pen tip, 3 angles going right and up -->
  <!-- Pen tip approx at (280, 735) in screen coords -->
  <polyline
    points="280,735 420,650 560,690 730,530 880,480"
    fill="none"
    stroke="#ffb000"
    stroke-width="7"
    stroke-linecap="round"
    stroke-linejoin="round"
    opacity="0.75"
  />

  <!-- Scanline effect -->
  <defs>
    <pattern id="scanlines" width="4" height="4" patternUnits="userSpaceOnUse">
      <rect width="4" height="2" fill="rgba(0,0,0,0.08)"/>
    </pattern>
  </defs>
  <rect width="1024" height="1024" fill="url(#scanlines)"/>
</svg>
